<svg width="24" height="24" viewBox="0 0 24 24" fill="none" xmlns="http://www.w3.org/2000/svg">
<path fill-rule="evenodd" clip-rule="evenodd" d="M23.1581 6.89517C23.1581 8.68245 22.2457 10.2566 20.8613 11.1773C20.9091 11.5796 20.9322 11.9867 20.9302 12.3976C20.9236 13.7266 20.6604 15.014 20.1429 16.2246C19.645 17.3936 18.9323 18.4419 18.0265 19.3389C17.1229 20.2359 16.068 20.9377 14.8947 21.4268C13.6951 21.9246 12.4209 22.179 11.1072 22.179H11.0611C9.5391 22.1724 8.02804 21.8084 6.67707 21.1263H3.34133C2.78427 21.1263 2.33249 20.6745 2.33249 20.1175L2.33249 16.7839C1.65043 15.4329 1.28637 13.9218 1.27979 12.3997C1.27321 11.0707 1.52761 9.77893 2.03203 8.56393C2.5189 7.39059 3.2229 6.33787 4.11989 5.4321C5.01687 4.52633 6.06519 3.81575 7.23412 3.31571C8.44473 2.79813 9.73209 2.53495 11.0611 2.52837H11.105C12.2816 2.52837 13.4269 2.73218 14.516 3.13514C15.4339 2.27961 16.6654 1.75616 18.0191 1.75616C20.8573 1.75616 23.1581 4.05698 23.1581 6.89517ZM19.2678 12.391C19.2685 12.2214 19.2641 12.0526 19.2546 11.8847C18.8589 11.9824 18.445 12.0342 18.0191 12.0342C15.1809 12.0342 12.8801 9.73337 12.8801 6.89517C12.8801 6.04464 13.0867 5.24237 13.4525 4.53581C12.6959 4.30929 11.9103 4.19516 11.1072 4.19516H11.0699C8.88335 4.20394 6.83717 5.05927 5.30637 6.60544C3.77337 8.15161 2.93779 10.2044 2.94656 12.391C2.95314 13.7134 3.28211 15.0271 3.90057 16.1873L3.99926 16.3715L3.99926 19.4595H7.08718L7.27141 19.5582C8.43157 20.1767 9.74525 20.5056 11.0677 20.5122H11.105C13.2762 20.5122 15.3158 19.6744 16.8532 18.1524C18.3971 16.6216 19.2546 14.5754 19.2678 12.391ZM18.0191 10.5342C18.3703 10.5342 18.7098 10.4844 19.0311 10.3916L19.0311 10.3916C19.5967 10.2282 20.1056 9.93122 20.5216 9.53709L20.5216 9.53714C21.2215 8.87393 21.6581 7.93553 21.6581 6.89517C21.6581 4.8854 20.0289 3.25616 18.0191 3.25616C16.0093 3.25616 14.3801 4.8854 14.3801 6.89517C14.3801 8.90494 16.0093 10.5342 18.0191 10.5342ZM17.4957 7.88383H18.2803C18.2823 7.72589 18.3039 7.58949 18.3449 7.47463C18.388 7.35977 18.468 7.25003 18.5849 7.14542C18.7203 7.01825 18.8444 6.89519 18.9572 6.77622C19.07 6.65726 19.1612 6.52906 19.231 6.39164C19.3007 6.25216 19.3356 6.0932 19.3356 5.91475C19.3356 5.65836 19.2812 5.44094 19.1725 5.2625C19.0638 5.082 18.9069 4.9456 18.7018 4.8533C18.4967 4.75895 18.2506 4.71177 17.9634 4.71177C17.7029 4.71177 17.468 4.7569 17.2588 4.84714C17.0496 4.93534 16.8825 5.07174 16.7573 5.25634C16.6343 5.43889 16.5697 5.67067 16.5635 5.95167H17.4557C17.4578 5.8245 17.4824 5.72195 17.5296 5.644C17.5788 5.56606 17.6414 5.50863 17.7173 5.47171C17.7932 5.43274 17.8752 5.41325 17.9634 5.41325C18.0701 5.41325 18.1583 5.43376 18.228 5.47479C18.2998 5.51581 18.3531 5.57632 18.388 5.65631C18.4249 5.73425 18.4434 5.83271 18.4434 5.95167C18.4434 6.05423 18.4228 6.14755 18.3818 6.23165C18.3408 6.31369 18.2844 6.39369 18.2126 6.47163C18.1408 6.54957 18.0567 6.63162 17.9603 6.71777C17.8455 6.82442 17.7532 6.93211 17.6834 7.04082C17.6157 7.14953 17.5675 7.27157 17.5388 7.40694C17.5121 7.54026 17.4978 7.69923 17.4957 7.88383ZM17.5388 8.50839C17.4486 8.59454 17.4034 8.70325 17.4034 8.83452C17.4034 8.96169 17.4486 9.06937 17.5388 9.15757C17.6291 9.24577 17.7501 9.28987 17.9019 9.28987C18.0516 9.28987 18.1716 9.24577 18.2618 9.15757C18.3541 9.06937 18.4003 8.96169 18.4003 8.83452C18.4003 8.70325 18.3541 8.59454 18.2618 8.50839C18.1716 8.4202 18.0516 8.3761 17.9019 8.3761C17.7501 8.3761 17.6291 8.4202 17.5388 8.50839ZM12.9245 9.07857L5.64647 9.07857V10.5342L12.9245 10.5342V9.07857ZM5.64647 11.9898L15.8357 11.9898V13.4454L5.64647 13.4454L5.64647 11.9898ZM15.8357 14.901L5.64647 14.901V16.3566H15.8357V14.901Z" fill="#0E9F6E"/>
</svg>
