<svg width="24" height="24" viewBox="0 0 24 24" fill="none" xmlns="http://www.w3.org/2000/svg">
<path d="M21.2231 8.12502C20.7186 6.92635 19.9954 5.85046 19.0736 4.92635C18.1517 4.00448 17.0758 3.27903 15.875 2.7768C14.6473 2.26118 13.3437 2.00002 12 2.00002H11.9554C10.6027 2.00671 9.29245 2.27457 8.06032 2.80135C6.8706 3.31028 5.80365 4.0335 4.89072 4.95537C3.97778 5.87725 3.26127 6.94868 2.76574 8.14287C2.25236 9.37948 1.99343 10.6942 2.00013 12.0469C2.00682 13.596 2.37735 15.1339 3.07154 16.5089L3.07154 19.9018C3.07154 20.4688 3.53136 20.9286 4.09831 20.9286H7.49336C8.86834 21.6228 10.4063 21.9933 11.9554 22H12.0022C13.3393 22 14.6361 21.7411 15.8571 21.2344C17.0513 20.7366 18.1249 20.0223 19.0446 19.1094C19.9664 18.1964 20.6919 17.1295 21.1985 15.9397C21.7253 14.7076 21.9932 13.3973 21.9999 12.0447C22.0066 10.6853 21.7432 9.36609 21.2231 8.12502ZM17.8504 17.9018C16.2857 19.4509 14.2098 20.3036 12 20.3036H11.9621C10.6161 20.2969 9.27905 19.9621 8.09826 19.3326L7.91077 19.2322H4.76795V16.0893L4.6675 15.9018C4.03805 14.721 3.70323 13.3839 3.69653 12.038C3.68761 9.81252 4.53804 7.72323 6.09829 6.14957C7.65631 4.57591 9.73887 3.70537 11.9643 3.69644L12.0022 3.69644C13.1183 3.69644 14.2009 3.91296 15.2209 4.34153C16.2165 4.75894 17.1093 5.35939 17.8772 6.12725C18.6428 6.89287 19.2454 7.78796 19.6629 8.7835C20.0959 9.81475 20.3124 10.9085 20.3079 12.038C20.2945 14.2612 19.4218 16.3438 17.8504 17.9018Z" fill="#0E9F6E"/>
<path d="M8.80231 13.3572V14H6.60777V13.3572H8.80231ZM6.89818 10V14H6L6 10H6.89818Z" fill="#0E9F6E"/>
<path d="M10.1497 10V14H9.25451V10H10.1497Z" fill="#0E9F6E"/>
<path d="M14.4162 10V14H13.518L11.7665 11.3187V14H10.8684V10H11.7665L13.521 12.6841V10H14.4162Z" fill="#0E9F6E"/>
<path d="M18 13.3572V14L15.6797 14V13.3572H18ZM15.9731 10V14H15.0749V10H15.9731ZM17.6976 11.6291V12.2555H15.6797V11.6291H17.6976ZM17.997 10V10.6456H15.6797V10H17.997Z" fill="#0E9F6E"/>
</svg>
