<svg width="38" height="33" viewBox="0 0 38 33" fill="none" xmlns="http://www.w3.org/2000/svg">
<path d="M18.9987 5.75204C24.7868 5.75204 29.4787 10.4382 29.4787 16.219V16.2194C29.4787 16.2997 29.4777 16.3796 29.4757 16.4592L29.4735 16.5338C29.4716 16.5947 29.4694 16.6557 29.4664 16.7164L29.4637 16.7774C29.4595 16.8558 29.4546 16.9341 29.4489 17.0124L29.4441 17.0694C29.4392 17.1304 29.4337 17.1915 29.4277 17.2523L29.42 17.328C29.4137 17.3882 29.4068 17.4481 29.3995 17.5079L29.3924 17.5678C29.3827 17.6428 29.3722 17.7173 29.3612 17.7917L29.3495 17.864C29.3409 17.9193 29.3318 17.9745 29.3221 18.0295L29.3087 18.1053C29.2972 18.1676 29.2854 18.2297 29.2729 18.2916L29.264 18.3368C29.249 18.4098 29.2332 18.4825 29.2167 18.5549L29.1981 18.6338C29.1864 18.6831 29.1744 18.7324 29.1621 18.7813L29.1406 18.8655C29.1225 18.9356 29.1035 19.005 29.084 19.0744L29.0678 19.1294C29.0518 19.1846 29.0354 19.2399 29.0186 19.2947L28.9925 19.3777C28.9773 19.4259 28.9617 19.4736 28.9457 19.5213L28.9201 19.598C28.8972 19.6649 28.8739 19.7317 28.8496 19.7978L28.8194 19.8787C28.803 19.9223 28.7866 19.9656 28.7698 20.0088L28.734 20.0996C28.7169 20.1424 28.6993 20.1852 28.6817 20.2278L28.6414 20.324C28.6172 20.3808 28.5923 20.4372 28.5672 20.4934L28.5226 20.5912L28.4728 20.6979L28.4258 20.7958C28.4072 20.8338 28.3883 20.8717 28.3691 20.9096C28.3435 20.9606 28.3174 21.0117 28.2907 21.0624C28.2726 21.0967 28.2546 21.1314 28.2362 21.1655C28.2169 21.2016 28.1971 21.2375 28.1772 21.2732L28.1328 21.3525C28.1116 21.3902 28.0905 21.4275 28.0688 21.4647L28.034 21.5233C27.9908 21.5961 27.9474 21.6687 27.9025 21.7403L27.863 21.8034C27.8378 21.8432 27.8123 21.883 27.7864 21.9223L27.7511 21.9761L27.7487 21.9799C27.5937 22.2144 27.5465 22.5041 27.6194 22.7755L29.1185 25.9287C29.2161 26.1338 29.0549 26.3454 28.8569 26.3454C28.8144 26.3454 28.7702 26.3357 28.7265 26.314L25.9099 24.9218L25.5581 24.8276C25.4755 24.8055 25.3914 24.7946 25.3077 24.7946C25.1175 24.7946 24.9295 24.8504 24.7676 24.9573C24.3231 25.2506 23.8551 25.5107 23.3668 25.7348V25.7356C22.0373 26.3454 20.5579 26.6858 18.9989 26.6858C13.2111 26.6858 8.51916 21.9996 8.51916 16.2188C8.51916 10.438 13.2111 5.75165 18.9989 5.75165M18.9989 4.37109C17.3981 4.37109 15.8444 4.68448 14.3812 5.30277C13.6781 5.59979 13 5.96741 12.3657 6.39538C11.738 6.81902 11.1476 7.30556 10.6111 7.84122C10.0746 8.37707 9.58763 8.96657 9.16348 9.59373C8.73498 10.2272 8.36691 10.9045 8.06953 11.6068C7.45068 13.0684 7.13672 14.6199 7.13672 16.2188C7.13672 17.8177 7.45049 19.3694 8.06953 20.8309C8.36691 21.5332 8.73498 22.2104 9.16348 22.8439C9.58763 23.4709 10.0748 24.0606 10.6111 24.5964C11.1476 25.1323 11.7378 25.6186 12.3657 26.0423C13 26.4702 13.6781 26.8379 14.3812 27.1349C15.8446 27.753 17.3981 28.0665 18.9989 28.0665C19.8644 28.0665 20.7285 27.9727 21.5671 27.7877C22.3836 27.6074 23.1832 27.3392 23.9436 26.9903L24.749 26.6209V26.5823C24.9621 26.4641 25.1718 26.3393 25.3768 26.2085L25.42 26.2202L28.1136 27.5516C28.3447 27.6658 28.6017 27.7261 28.8571 27.7261C29.1477 27.7261 29.435 27.6494 29.688 27.5041C29.9242 27.3684 30.126 27.1751 30.2717 26.9449C30.5793 26.459 30.6151 25.8579 30.3673 25.3368L29.0354 22.5353L29.0747 22.4725L29.0753 22.4718L29.0759 22.4708C29.1201 22.3998 29.1671 22.3223 29.2236 22.227V22.2266L29.2242 22.2262L29.2589 22.1676L29.2617 22.1629L29.2644 22.158C29.2913 22.1118 29.3162 22.0676 29.3375 22.0298L29.3385 22.0282L29.3395 22.0266L29.3839 21.9473L29.3859 21.944L29.3878 21.9404C29.4074 21.9049 29.4303 21.8635 29.4536 21.8203L29.4542 21.8191L29.4548 21.8182C29.4702 21.7894 29.4856 21.7604 29.5008 21.7314L29.5144 21.7053L29.515 21.7042L29.5156 21.703C29.5429 21.6511 29.5707 21.5969 29.6033 21.5322C29.6293 21.4807 29.6497 21.4399 29.6688 21.4002L29.6704 21.3969L29.672 21.3935L29.719 21.2957L29.7222 21.2892L29.7251 21.2827L29.7749 21.176L29.7774 21.1707L29.7798 21.1653L29.8244 21.0675L29.8266 21.063L29.8286 21.0585C29.857 20.9951 29.8851 20.9309 29.9123 20.8675L29.9145 20.8624L29.9167 20.8571L29.9569 20.7608L29.9583 20.7575L29.9597 20.7541C29.9781 20.7096 29.9978 20.6618 30.0174 20.6127L30.0185 20.6098L30.0197 20.6068L30.0555 20.5161L30.0574 20.511L30.0594 20.5058C30.0792 20.4546 30.0971 20.4076 30.1139 20.3627L30.1441 20.2818L30.1461 20.2769L30.1479 20.2717C30.1728 20.2033 30.199 20.1291 30.2279 20.0447L30.2296 20.0398L30.2314 20.0347L30.2571 19.958C30.276 19.9012 30.2934 19.8475 30.3104 19.7943L30.311 19.7923L30.3116 19.7903L30.3376 19.7073L30.3388 19.7037L30.34 19.7002C30.358 19.6416 30.3763 19.5799 30.3947 19.5164L30.4105 19.4625L30.4125 19.4558L30.4145 19.4491C30.4364 19.3712 30.4579 19.2919 30.4784 19.213L30.4794 19.2097L30.4802 19.2063L30.5017 19.1221V19.1209L30.5023 19.1198C30.516 19.0657 30.5298 19.0091 30.5434 18.9511L30.5622 18.8715L30.5632 18.8673L30.5641 18.8632C30.5831 18.7807 30.6011 18.6973 30.618 18.6155L30.619 18.6103L30.62 18.6052L30.6285 18.5618C30.6421 18.4938 30.6556 18.4238 30.6684 18.3534L30.6692 18.3494L30.67 18.3455L30.6834 18.2697V18.2691L30.6836 18.2686C30.6939 18.2102 30.7041 18.1486 30.715 18.0802L30.7263 18.01L30.7272 18.0041L30.7282 17.9982C30.7405 17.9173 30.7523 17.8319 30.7636 17.7449L30.7644 17.7386L30.7652 17.7323L30.7723 17.6735C30.781 17.6025 30.7885 17.5365 30.7952 17.472V17.4706L30.7954 17.4692L30.8031 17.3935L30.8035 17.3897L30.8039 17.386C30.81 17.3237 30.8157 17.2578 30.8218 17.1844L30.8266 17.1282L30.8272 17.1215L30.8278 17.1148C30.8339 17.0312 30.8394 16.945 30.8445 16.8511L30.8449 16.845V16.8389L30.8479 16.7793C30.8507 16.719 30.8532 16.6551 30.8556 16.5788V16.5758V16.5728L30.8578 16.4983V16.4961V16.4939C30.8601 16.4018 30.8613 16.3095 30.8613 16.2196C30.8613 14.6205 30.5476 13.0688 29.9285 11.6072C29.6311 10.9049 29.2631 10.2276 28.8346 9.59413C28.4104 8.96716 27.9233 8.37746 27.387 7.84161C26.8504 7.30576 26.2602 6.81941 25.6323 6.39578C24.998 5.9678 24.32 5.60018 23.6168 5.30317C22.1534 4.68507 20.5998 4.37149 18.9991 4.37149L18.9989 4.37109Z" fill="white"/>
<path fill-rule="evenodd" clip-rule="evenodd" d="M13.2265 14.5371C14.1562 14.5371 14.9099 15.2899 14.9099 16.2184C14.9099 17.147 14.1562 17.8999 13.2265 17.8999C12.2969 17.8999 11.543 17.1471 11.543 16.2184C11.543 15.2897 12.2967 14.5371 13.2265 14.5371ZM24.7734 14.5371C25.703 14.5371 26.4568 15.2899 26.4568 16.2184C26.4568 17.147 25.703 17.8999 24.7734 17.8999C23.8437 17.8999 23.0898 17.1471 23.0898 16.2184C23.0898 15.2897 23.8435 14.5371 24.7734 14.5371ZM19 14.5371C19.9296 14.5371 20.6835 15.2899 20.6835 16.2186C20.6835 17.1473 19.9298 17.8999 19 17.8999C18.0701 17.8999 17.3166 17.1471 17.3166 16.2186C17.3166 15.2901 18.0703 14.5371 19 14.5371Z" fill="white"/>
<path fill-rule="evenodd" clip-rule="evenodd" d="M36.0202 11.7069H35.3968C34.9332 11.7069 34.5197 11.4132 34.37 10.975C32.1875 4.59113 26.1309 0 19.0001 0C11.8693 0 5.81272 4.59113 3.63016 10.975C3.48029 11.4132 3.067 11.7069 2.60335 11.7069H1.97977C0.890954 11.7069 0 12.5968 0 13.6843V18.7517C0 19.8394 0.890953 20.7292 1.97996 20.7292H4.09775C5.85241 26.5187 10.8952 30.881 17.0565 31.6475C17.3481 32.4369 18.1084 32.9998 18.9999 32.9998C20.1535 32.9998 21.0869 32.0577 21.0707 30.9018C21.0707 30.8986 21.0707 30.8956 21.0707 30.8925C21.0622 30.4276 20.6578 30.0669 20.1942 30.1064C19.8006 30.1397 19.4023 30.1568 19.0001 30.1568C10.5957 30.1568 3.92655 22.737 5.20078 14.0982C6.08976 8.07191 10.8439 3.32359 16.8778 2.43569C25.527 1.16302 32.956 7.824 32.956 16.2182C32.956 17.3051 32.8314 18.363 32.5956 19.3785C32.6535 20.1184 33.2714 20.7294 34.0584 20.7294H36.02C37.109 20.7294 38 19.8396 38 18.7519V13.6845C38 12.5968 37.109 11.7069 36.02 11.7069H36.0202Z" fill="white"/>
</svg>
