<svg width="24" height="24" viewBox="0 0 24 24" fill="none" xmlns="http://www.w3.org/2000/svg">
<path d="M11.9992 5.63292C15.6548 5.63292 18.6181 8.59262 18.6181 12.2436V12.2439C18.6181 12.2946 18.6175 12.345 18.6162 12.3954L18.6149 12.4424C18.6136 12.4809 18.6122 12.5194 18.6104 12.5578L18.6086 12.5963C18.606 12.6459 18.6029 12.6953 18.5993 12.7448L18.5963 12.7808C18.5932 12.8192 18.5897 12.8579 18.5859 12.8962L18.5811 12.944C18.5771 12.982 18.5727 13.0199 18.5681 13.0576L18.5636 13.0955C18.5575 13.1429 18.5509 13.1899 18.5439 13.2369L18.5365 13.2826C18.531 13.3175 18.5253 13.3524 18.5192 13.3871L18.5107 13.4349C18.5035 13.4743 18.496 13.5135 18.4881 13.5527L18.4825 13.5812C18.4731 13.6273 18.4631 13.6732 18.4526 13.7189L18.4409 13.7688C18.4335 13.7999 18.4259 13.8311 18.4182 13.8619L18.4046 13.9151C18.3931 13.9594 18.3811 14.0032 18.3688 14.047L18.3586 14.0818C18.3485 14.1167 18.3381 14.1515 18.3275 14.1862L18.3111 14.2386C18.3015 14.269 18.2916 14.2992 18.2815 14.3293L18.2653 14.3778C18.2508 14.42 18.2361 14.4622 18.2208 14.5039L18.2017 14.555C18.1913 14.5825 18.181 14.6099 18.1704 14.6372L18.1478 14.6945C18.137 14.7215 18.1259 14.7486 18.1148 14.7755L18.0893 14.8363C18.074 14.8721 18.0583 14.9078 18.0424 14.9433L18.0142 15.005L17.9828 15.0724L17.9531 15.1342C17.9414 15.1583 17.9294 15.1822 17.9173 15.2061C17.9011 15.2383 17.8847 15.2706 17.8678 15.3026C17.8563 15.3243 17.845 15.3462 17.8334 15.3678C17.8212 15.3906 17.8087 15.4132 17.7961 15.4358L17.7681 15.4858C17.7547 15.5096 17.7414 15.5332 17.7276 15.5567L17.7057 15.5937C17.6784 15.6397 17.6509 15.6855 17.6226 15.7307L17.5977 15.7706C17.5817 15.7958 17.5656 15.8209 17.5493 15.8457L17.527 15.8797L17.5255 15.8821C17.4276 16.0302 17.3978 16.2132 17.4438 16.3846L18.3906 18.376C18.4522 18.5056 18.3505 18.6392 18.2254 18.6392C18.1986 18.6392 18.1706 18.6331 18.1431 18.6194L16.3642 17.7402L16.1419 17.6806C16.0898 17.6667 16.0367 17.6598 15.9838 17.6598C15.8637 17.6598 15.7449 17.6951 15.6427 17.7626C15.362 17.9478 15.0664 18.1121 14.758 18.2536V18.2541C13.9183 18.6392 12.9839 18.8542 11.9993 18.8542C8.34382 18.8542 5.3805 15.8945 5.3805 12.2435C5.3805 8.5925 8.34382 5.63267 11.9993 5.63267M11.9993 4.76074C10.9882 4.76074 10.007 4.95867 9.08288 5.34917C8.63877 5.53676 8.2105 5.76894 7.80992 6.03924C7.41346 6.3068 7.04057 6.61409 6.70172 6.9524C6.36287 7.29083 6.05533 7.66315 5.78744 8.05925C5.51682 8.45934 5.28435 8.88709 5.09653 9.33065C4.70568 10.2538 4.50739 11.2337 4.50739 12.2435C4.50739 13.2533 4.70555 14.2334 5.09653 15.1564C5.28435 15.5999 5.51682 16.0277 5.78744 16.4278C6.05533 16.8238 6.363 17.1962 6.70172 17.5346C7.04057 17.8731 7.41333 18.1802 7.80992 18.4478C8.2105 18.7181 8.63877 18.9503 9.08288 19.1379C10.0071 19.5282 10.9882 19.7263 11.9993 19.7263C12.5459 19.7263 13.0917 19.667 13.6213 19.5502C14.137 19.4363 14.642 19.2669 15.1223 19.0466L15.631 18.8133V18.7888C15.7655 18.7142 15.898 18.6354 16.0274 18.5528L16.0547 18.5601L17.756 19.4011C17.9019 19.4732 18.0642 19.5113 18.2255 19.5113C18.4091 19.5113 18.5905 19.4628 18.7503 19.371C18.8995 19.2853 19.0269 19.1633 19.1189 19.0179C19.3133 18.711 19.3358 18.3313 19.1793 18.0022L18.3381 16.2328L18.3629 16.1932L18.3633 16.1927L18.3637 16.1921C18.3916 16.1473 18.4213 16.0983 18.457 16.0382V16.0379L18.4573 16.0377L18.4793 16.0007L18.481 15.9977L18.4828 15.9946C18.4997 15.9654 18.5155 15.9375 18.5289 15.9136L18.5296 15.9126L18.5302 15.9116L18.5582 15.8615L18.5595 15.8594L18.5607 15.8572C18.5731 15.8347 18.5875 15.8086 18.6023 15.7813L18.6026 15.7806L18.603 15.7799C18.6127 15.7618 18.6225 15.7434 18.6321 15.7251L18.6407 15.7087L18.641 15.7079L18.6414 15.7072C18.6586 15.6744 18.6762 15.6402 18.6968 15.5993C18.7133 15.5668 18.7261 15.541 18.7382 15.516L18.7392 15.5139L18.7402 15.5118L18.7699 15.45L18.7719 15.4459L18.7737 15.4418L18.8052 15.3744L18.8068 15.371L18.8083 15.3676L18.8365 15.3059L18.8378 15.303L18.8391 15.3001C18.8571 15.2601 18.8748 15.2195 18.892 15.1796L18.8933 15.1763L18.8947 15.173L18.9202 15.1122L18.921 15.11L18.9219 15.1079C18.9335 15.0798 18.946 15.0496 18.9583 15.0186L18.9591 15.0168L18.9598 15.0149L18.9824 14.9576L18.9836 14.9543L18.9849 14.9511C18.9974 14.9187 19.0087 14.8891 19.0193 14.8607L19.0384 14.8096L19.0396 14.8065L19.0408 14.8033C19.0565 14.76 19.0731 14.7132 19.0913 14.6599L19.0924 14.6568L19.0935 14.6535L19.1097 14.6051C19.1217 14.5692 19.1327 14.5353 19.1434 14.5017L19.1438 14.5004L19.1441 14.4992L19.1606 14.4468L19.1614 14.4445L19.1621 14.4423C19.1734 14.4053 19.185 14.3663 19.1966 14.3262L19.2066 14.2922L19.2079 14.2879L19.2091 14.2837C19.223 14.2345 19.2366 14.1844 19.2495 14.1346L19.2501 14.1325L19.2506 14.1304L19.2642 14.0772V14.0764L19.2646 14.0757C19.2732 14.0416 19.2819 14.0058 19.2906 13.9692L19.3024 13.9189L19.303 13.9163L19.3036 13.9136C19.3156 13.8616 19.327 13.8089 19.3377 13.7572L19.3383 13.7539L19.3389 13.7507L19.3443 13.7233C19.3529 13.6803 19.3614 13.6361 19.3695 13.5916L19.37 13.5892L19.3705 13.5867L19.379 13.5388V13.5385L19.3791 13.5381C19.3856 13.5012 19.3921 13.4624 19.3989 13.4191L19.406 13.3748L19.4067 13.371L19.4073 13.3673C19.415 13.3162 19.4225 13.2623 19.4296 13.2074L19.4301 13.2034L19.4306 13.1994L19.4351 13.1623C19.4406 13.1174 19.4453 13.0757 19.4496 13.035V13.0341L19.4497 13.0332L19.4546 12.9854L19.4548 12.983L19.4551 12.9807C19.4589 12.9413 19.4625 12.8997 19.4664 12.8534L19.4694 12.8179L19.4698 12.8136L19.4701 12.8094C19.474 12.7566 19.4775 12.7022 19.4807 12.6429L19.481 12.639V12.6351L19.4829 12.5975C19.4846 12.5594 19.4862 12.519 19.4877 12.4708V12.469V12.4671L19.4891 12.42V12.4187V12.4173C19.4906 12.3591 19.4913 12.3008 19.4913 12.244C19.4913 11.2341 19.2932 10.254 18.9022 9.3309C18.7144 8.88734 18.4819 8.45959 18.2113 8.0595C17.9434 7.66352 17.6357 7.29108 17.297 6.95265C16.9582 6.61422 16.5854 6.30705 16.1888 6.03949C15.7882 5.76919 15.36 5.53701 14.9159 5.34942C13.9916 4.95904 13.0104 4.76099 11.9994 4.76099L11.9993 4.76074Z" fill="#0E9F6E"/>
<path fill-rule="evenodd" clip-rule="evenodd" d="M8.35368 11.1814C8.94083 11.1814 9.41686 11.6568 9.41686 12.2433C9.41686 12.8297 8.94083 13.3053 8.35368 13.3053C7.76652 13.3053 7.29037 12.8298 7.29037 12.2433C7.29037 11.6567 7.7664 11.1814 8.35368 11.1814ZM15.6464 11.1814C16.2336 11.1814 16.7096 11.6568 16.7096 12.2433C16.7096 12.8297 16.2336 13.3053 15.6464 13.3053C15.0593 13.3053 14.5831 12.8298 14.5831 12.2433C14.5831 11.6567 15.0591 11.1814 15.6464 11.1814ZM12 11.1814C12.5872 11.1814 13.0634 11.6568 13.0634 12.2434C13.0634 12.8299 12.5873 13.3053 12 13.3053C11.4128 13.3053 10.9369 12.8298 10.9369 12.2434C10.9369 11.6569 11.4129 11.1814 12 11.1814Z" fill="#0E9F6E"/>
<path fill-rule="evenodd" clip-rule="evenodd" d="M22.7496 9.39388H22.3559C22.0631 9.39388 21.8019 9.20841 21.7074 8.93164C20.3289 4.89971 16.5037 2.00005 12.0001 2.00005C7.49641 2.00005 3.67119 4.89971 2.29273 8.93164C2.19808 9.20841 1.93705 9.39388 1.64422 9.39388H1.25038C0.562708 9.39388 0 9.9559 0 10.6427L0 13.8432C0 14.5302 0.562707 15.0922 1.2505 15.0922H2.58806C3.69626 18.7487 6.8812 21.5039 10.7725 21.9879C10.9567 22.4865 11.4369 22.842 11.9999 22.842C12.7285 22.842 13.318 22.247 13.3078 21.5169C13.3078 21.5149 13.3078 21.5131 13.3078 21.5111C13.3024 21.2175 13.047 20.9897 12.7542 21.0146C12.5057 21.0356 12.2541 21.0465 12.0001 21.0465C6.692 21.0465 2.47993 16.3602 3.28471 10.9042C3.84617 7.09809 6.84877 4.09915 10.6596 3.53838C16.1223 2.73458 20.8143 6.94152 20.8143 12.2431C20.8143 12.9296 20.7356 13.5977 20.5867 14.2391C20.6233 14.7064 21.0135 15.0923 21.5106 15.0923L22.7495 15.0923C23.4373 15.0923 24 14.5303 24 13.8433V10.6429C24 9.9559 23.4373 9.39388 22.7495 9.39388H22.7496Z" fill="#0E9F6E"/>
</svg>
