<svg width="24" height="24" viewBox="0 0 24 24" fill="none" xmlns="http://www.w3.org/2000/svg">
<path d="M16.4962 14.1125C16.2529 13.9779 15.0407 13.3385 14.8153 13.252C14.5898 13.1607 14.4246 13.1174 14.2617 13.3866C14.0965 13.6534 13.6277 14.2471 13.4804 14.4274C13.3375 14.6053 13.1924 14.6269 12.9491 14.4947C11.5025 13.7159 10.5538 13.1054 9.60063 11.3435C9.34838 10.8748 9.85288 10.9084 10.3239 9.89645C10.4043 9.71858 10.3641 9.56715 10.3016 9.43254C10.2391 9.29794 9.74796 7.99514 9.54259 7.46393C9.34391 6.94713 9.13854 7.01924 8.98898 7.00963C8.84611 7.00002 8.68315 7.00002 8.51796 7.00002C8.35277 7.00002 8.08713 7.06732 7.86167 7.32932C7.63621 7.59613 7 8.23791 7 9.54071C7 10.8435 7.88176 12.1054 8.0023 12.2833C8.12731 12.4612 9.7368 15.1341 12.208 16.2854C13.7706 17.0114 14.3822 17.0738 15.1635 16.9489C15.639 16.8719 16.619 16.3095 16.8221 15.6869C17.0253 15.0668 17.0253 14.5356 16.965 14.425C16.9047 14.3072 16.7395 14.2399 16.4962 14.1125Z" fill="#0E9F6E"/>
<path d="M21.2231 8.12502C20.7186 6.92635 19.9954 5.85046 19.0736 4.92635C18.1517 4.00448 17.0758 3.27903 15.875 2.7768C14.6473 2.26118 13.3437 2.00002 12 2.00002H11.9554C10.6027 2.00671 9.29245 2.27457 8.06032 2.80135C6.8706 3.31028 5.80365 4.0335 4.89072 4.95537C3.97778 5.87725 3.26127 6.94868 2.76574 8.14287C2.25236 9.37948 1.99343 10.6942 2.00013 12.0469C2.00682 13.596 2.37735 15.1339 3.07154 16.5089L3.07154 19.9018C3.07154 20.4688 3.53136 20.9286 4.09831 20.9286H7.49336C8.86834 21.6228 10.4063 21.9933 11.9554 22H12.0022C13.3393 22 14.6361 21.7411 15.8571 21.2344C17.0513 20.7366 18.1249 20.0223 19.0446 19.1094C19.9664 18.1964 20.6919 17.1295 21.1985 15.9397C21.7253 14.7076 21.9932 13.3973 21.9999 12.0447C22.0066 10.6853 21.7432 9.36609 21.2231 8.12502ZM17.8504 17.9018C16.2857 19.4509 14.2098 20.3036 12 20.3036H11.9621C10.6161 20.2969 9.27905 19.9621 8.09827 19.3326L7.91077 19.2322H4.76795V16.0893L4.6675 15.9018C4.03805 14.721 3.70323 13.3839 3.69653 12.038C3.68761 9.81252 4.53804 7.72323 6.09829 6.14957C7.65631 4.57591 9.73887 3.70537 11.9643 3.69644L12.0022 3.69644C13.1183 3.69644 14.2009 3.91296 15.2209 4.34153C16.2165 4.75894 17.1093 5.35939 17.8772 6.12725C18.6428 6.89287 19.2454 7.78796 19.6629 8.7835C20.0959 9.81475 20.3124 10.9085 20.3079 12.038C20.2945 14.2612 19.4218 16.3438 17.8504 17.9018Z" fill="#0E9F6E"/>
</svg>
