<svg width="130" height="38" viewBox="0 0 130 38" fill="none" xmlns="http://www.w3.org/2000/svg">
<path d="M27.2137 19.0002C27.2331 17.3333 28.1325 15.7984 29.5948 14.924C28.6695 13.6408 27.1749 12.8545 25.5638 12.8041C23.8686 12.6343 22.2252 13.7917 21.3647 13.7917C20.4847 13.7917 19.1519 12.823 17.722 12.8545C15.8391 12.9111 14.1245 13.9301 13.2058 15.5342C11.2518 18.8178 12.7076 23.6489 14.5774 26.3035C15.5156 27.6056 16.6091 29.0587 18.039 29.0021C19.4366 28.9455 19.9606 28.134 21.6494 28.134C23.3251 28.134 23.8169 29.0021 25.2727 28.9706C26.7738 28.9455 27.7184 27.6622 28.6242 26.3538C29.2971 25.4291 29.8148 24.4038 30.1577 23.3218C28.3719 22.5858 27.2137 20.8874 27.2137 19.0002Z" fill="white"/>
<path d="M24.4514 11.0682C25.2731 10.112 25.6742 8.87911 25.5772 7.63989C24.3284 7.7657 23.1703 8.35072 22.3421 9.26912C21.5204 10.175 21.1063 11.3639 21.1904 12.5653C22.4586 12.5779 23.662 12.0243 24.4514 11.0682Z" fill="white"/>
<path d="M49.8269 25.8444H45.233L44.1266 29.0085H42.1855L46.54 17.2957H48.5587L52.9131 29.0148H50.9333L49.8269 25.8444ZM45.7118 24.385H49.3545L47.5558 19.2457H47.5041L45.7118 24.385Z" fill="white"/>
<path d="M62.3076 24.7373C62.3076 27.3918 60.8454 29.0965 58.639 29.0965C57.5003 29.1532 56.4262 28.5744 55.8762 27.5994H55.8374V31.8329H54.0322V20.466H55.7792V21.8877H55.8115C56.3874 20.9189 57.4614 20.3402 58.6067 20.378C60.8389 20.378 62.3076 22.0953 62.3076 24.7373ZM60.4507 24.7373C60.4507 23.0074 59.5319 21.8688 58.1279 21.8688C56.7497 21.8688 55.8245 23.0325 55.8245 24.7373C55.8245 26.4608 56.7497 27.612 58.1279 27.612C59.5319 27.612 60.4507 26.486 60.4507 24.7373Z" fill="white"/>
<path d="M71.9805 24.7373C71.9805 27.3918 70.5182 29.0965 68.3119 29.0965C67.1731 29.1532 66.099 28.5744 65.5491 27.5994H65.5103V31.8329H63.7051V20.466H65.452V21.8877H65.4844C66.0602 20.9189 67.1343 20.3402 68.2795 20.378C70.5053 20.378 71.9805 22.0953 71.9805 24.7373ZM70.1235 24.7373C70.1235 23.0074 69.2047 21.8688 67.8007 21.8688C66.4226 21.8688 65.4973 23.0325 65.4973 24.7373C65.4973 26.4608 66.4226 27.612 67.8007 27.612C69.2047 27.612 70.1235 26.486 70.1235 24.7373Z" fill="white"/>
<path d="M78.3668 25.7437C78.5027 26.9074 79.6609 27.6686 81.2461 27.6686C82.7666 27.6686 83.86 26.9074 83.86 25.8569C83.86 24.9448 83.2001 24.4038 81.6408 24.0327L80.0814 23.6678C77.8686 23.1457 76.8399 22.1393 76.8399 20.51C76.8399 18.4908 78.6515 17.1006 81.2267 17.1006C83.7759 17.1006 85.5229 18.4908 85.5811 20.51H83.763C83.653 19.34 82.6566 18.6355 81.2073 18.6355C79.7579 18.6355 78.7615 19.3526 78.7615 20.3905C78.7615 21.2208 79.3956 21.7052 80.9484 22.0763L82.2748 22.3909C84.7465 22.957 85.7752 23.9257 85.7752 25.6368C85.7752 27.8258 83.983 29.2035 81.1231 29.2035C78.4509 29.2035 76.6458 27.8636 76.5293 25.7437H78.3668Z" fill="white"/>
<path d="M89.6644 18.4468V20.466H91.3337V21.8562H89.6644V26.5678C89.6644 27.2975 90.0008 27.6434 90.732 27.6434C90.9326 27.6372 91.1267 27.6246 91.3272 27.6057V28.9833C90.9973 29.0462 90.6608 29.0714 90.3244 29.0651C88.5451 29.0651 87.8528 28.4172 87.8528 26.7565V21.8562H86.5781V20.466H87.8528V18.4468H89.6644Z" fill="white"/>
<path d="M92.3037 24.7368C92.3037 22.0508 93.9342 20.3586 96.4705 20.3586C99.0198 20.3586 100.637 22.0445 100.637 24.7368C100.637 27.4291 99.0262 29.115 96.4705 29.115C93.9148 29.115 92.3037 27.4354 92.3037 24.7368ZM98.7998 24.7368C98.7998 22.8937 97.9328 21.8055 96.4705 21.8055C95.0083 21.8055 94.1412 22.9 94.1412 24.7368C94.1412 26.5862 95.0083 27.6682 96.4705 27.6682C97.9328 27.6682 98.7998 26.5925 98.7998 24.7368Z" fill="white"/>
<path d="M102.125 20.4661H103.846V21.9192H103.885C104.124 20.9819 105.004 20.3403 106.001 20.378C106.208 20.378 106.415 20.3969 106.622 20.441V22.0828C106.357 22.0073 106.085 21.9695 105.813 21.9758C105.282 21.957 104.771 22.1582 104.409 22.5357C104.047 22.9131 103.872 23.4289 103.937 23.9385V29.0086H102.131L102.125 20.4661Z" fill="white"/>
<path d="M114.931 26.5045C114.685 28.0583 113.132 29.1214 111.146 29.1214C108.59 29.1214 107.005 27.4544 107.005 24.7873C107.005 22.1075 108.603 20.3713 111.075 20.3713C113.507 20.3713 115.034 21.9943 115.034 24.586V25.1898H108.829V25.2968C108.771 25.9321 108.998 26.5612 109.451 27.0267C109.904 27.4922 110.538 27.7438 111.191 27.7186C112.065 27.8004 112.893 27.3097 113.223 26.5171L114.931 26.5045ZM108.836 23.9506H113.229C113.262 23.3782 113.048 22.8183 112.64 22.4095C112.233 22.0006 111.663 21.7678 111.075 21.7804C110.479 21.7741 109.91 22.0069 109.489 22.4095C109.069 22.8246 108.836 23.3782 108.836 23.9506Z" fill="white"/>
<path d="M45.4854 8.47661C46.2489 8.41999 46.9994 8.70306 47.53 9.24404C48.0605 9.78503 48.3064 10.5273 48.2093 11.2696C48.2093 13.0687 47.2064 14.1003 45.4854 14.1003H43.3955V8.47661H45.4854ZM44.2949 13.3077H45.3883C45.9318 13.3391 46.4624 13.1316 46.8376 12.7353C47.2129 12.339 47.3747 11.8106 47.297 11.2822C47.3682 10.76 47.2 10.2254 46.8312 9.83535C46.4624 9.44534 45.9318 9.23775 45.3883 9.26921H44.2949V13.3077Z" fill="white"/>
<path d="M49.2251 11.9802C49.1474 11.2191 49.5227 10.4831 50.1956 10.0805C50.8685 9.67792 51.7096 9.67792 52.3761 10.0805C53.0425 10.4831 53.4178 11.2191 53.3466 11.9802C53.4242 12.7414 53.049 13.4836 52.3761 13.8862C51.7032 14.2888 50.862 14.2888 50.1891 13.8862C49.5162 13.4836 49.1474 12.7414 49.2251 11.9802ZM52.4602 11.9802C52.4602 11.0618 52.0331 10.5208 51.2891 10.5208C50.5385 10.5208 50.118 11.0618 50.118 11.9802C50.118 12.9112 50.5385 13.4459 51.2891 13.4459C52.0331 13.4396 52.4602 12.9049 52.4602 11.9802Z" fill="white"/>
<path d="M58.8269 14.1061H57.934L57.0282 10.9735H56.9635L56.0641 14.1061H55.1777L53.9678 9.85376H54.8477L55.6306 13.0996H55.6953L56.5882 9.85376H57.4164L58.3158 13.0996H58.3869L59.1634 9.85376H60.0239L58.8269 14.1061Z" fill="white"/>
<path d="M61.0391 9.85409H61.8672V10.5272H61.9319C62.1584 10.0302 62.6825 9.72828 63.2389 9.77231C63.6724 9.74086 64.093 9.90441 64.3841 10.2064C64.6753 10.5083 64.8112 10.936 64.7465 11.3512V14.1002H63.8859V11.5651C63.8859 10.8794 63.5818 10.5397 62.9413 10.5397C62.6501 10.5272 62.3655 10.6404 62.1649 10.848C61.9643 11.0556 61.8672 11.3386 61.8996 11.6217V14.1064H61.0391V9.85409Z" fill="white"/>
<path d="M66.125 8.19971H66.9855V14.1065H66.125V8.19971Z" fill="white"/>
<path d="M68.1889 11.9802C68.1113 11.2191 68.4866 10.4831 69.1595 10.0805C69.8324 9.67792 70.6735 9.67792 71.3399 10.0805C72.0063 10.4831 72.3816 11.2191 72.3104 11.9802C72.3881 12.7414 72.0128 13.4836 71.3399 13.8862C70.667 14.2888 69.8259 14.2888 69.153 13.8862C68.4801 13.4836 68.1113 12.7414 68.1889 11.9802ZM71.424 11.9802C71.424 11.0618 70.997 10.5208 70.2529 10.5208C69.5024 10.5208 69.0818 11.0618 69.0818 11.9802C69.0818 12.9112 69.5024 13.4459 70.2529 13.4459C70.997 13.4396 71.424 12.9049 71.424 11.9802Z" fill="white"/>
<path d="M73.2168 12.9051C73.2168 12.1377 73.8056 11.6973 74.8408 11.6344L76.0249 11.5652V11.2004C76.0249 10.7538 75.7208 10.4959 75.132 10.4959C74.6532 10.4959 74.3167 10.6657 74.2197 10.9676H73.385C73.4756 10.238 74.1809 9.77246 75.1708 9.77246C76.2643 9.77246 76.8854 10.3009 76.8854 11.2004V14.1003H76.0572V13.509H75.9861C75.7014 13.943 75.2032 14.2009 74.6726 14.1758C74.3038 14.2135 73.9285 14.094 73.6568 13.855C73.385 13.6159 73.2168 13.2637 73.2168 12.9051ZM76.0249 12.5403V12.1817L74.9573 12.2509C74.3556 12.2886 74.0838 12.4899 74.0838 12.8611C74.0838 13.2448 74.4267 13.465 74.8926 13.465C75.1708 13.4901 75.449 13.4083 75.6625 13.2322C75.8761 13.0624 76.0055 12.8108 76.0249 12.5403Z" fill="white"/>
<path d="M78.0176 11.9803C78.0176 10.6404 78.7293 9.78491 79.8292 9.78491C80.3857 9.75974 80.9098 10.0491 81.1686 10.5272H81.2333V8.19971H82.0938V14.1065H81.2656V13.4334H81.1945C80.9162 13.9115 80.3857 14.1945 79.8228 14.1757C78.7228 14.1757 78.0176 13.3264 78.0176 11.9803ZM78.9105 11.9803C78.9105 12.8798 79.3504 13.4208 80.0751 13.4208C80.7998 13.4208 81.2527 12.8735 81.2527 11.9803C81.2527 11.0933 80.7998 10.5398 80.0751 10.5398C79.3504 10.5398 78.9105 11.087 78.9105 11.9803Z" fill="white"/>
<path d="M85.6714 11.9802C85.5937 11.2191 85.969 10.4831 86.6419 10.0805C87.3083 9.67792 88.1559 9.67792 88.8223 10.0805C89.4888 10.4831 89.864 11.2191 89.7929 11.9802C89.8705 12.7414 89.4952 13.4836 88.8223 13.8862C88.1559 14.2888 87.3083 14.2888 86.6354 13.8862C85.9625 13.4836 85.5937 12.7414 85.6714 11.9802ZM88.9 11.9802C88.9 11.0618 88.4729 10.5208 87.7289 10.5208C86.9783 10.5208 86.5578 11.0618 86.5578 11.9802C86.5578 12.9112 86.9783 13.4459 87.7289 13.4459C88.4794 13.4396 88.9 12.9049 88.9 11.9802Z" fill="white"/>
<path d="M90.9443 9.85409H91.7725V10.5272H91.8372C92.0637 10.0302 92.5878 9.72828 93.1442 9.77231C93.5777 9.74086 93.9983 9.90441 94.2894 10.2064C94.5806 10.5146 94.7165 10.936 94.6518 11.3512V14.1002H93.7912V11.5651C93.7912 10.8794 93.4871 10.5397 92.8466 10.5397C92.5554 10.5272 92.2707 10.6404 92.0702 10.848C91.8696 11.0556 91.7725 11.3386 91.8049 11.6217V14.1064H90.9443V9.85409Z" fill="white"/>
<path d="M99.5314 8.79785V9.87352H100.476V10.5781H99.5314V12.7608C99.5314 13.2075 99.719 13.4025 100.152 13.4025C100.262 13.4025 100.372 13.3962 100.482 13.3836V14.0818C100.327 14.107 100.172 14.1259 100.01 14.1259C99.0526 14.1259 98.6708 13.7988 98.6708 12.981V10.5843H97.9785V9.87352H98.6708V8.79785H99.5314Z" fill="white"/>
<path d="M101.659 8.19971H102.513V10.5398H102.584C102.817 10.0365 103.354 9.73458 103.917 9.77861C104.344 9.75345 104.765 9.917 105.056 10.2252C105.347 10.5335 105.483 10.9486 105.425 11.3638V14.1065H104.564V11.5651C104.564 10.8857 104.241 10.5398 103.633 10.5398C103.335 10.5146 103.037 10.6215 102.824 10.8291C102.61 11.0367 102.507 11.3261 102.533 11.6154V14.0939H101.672L101.659 8.19971Z" fill="white"/>
<path d="M110.446 12.9555C110.207 13.7544 109.405 14.2765 108.551 14.1821C107.968 14.1947 107.405 13.962 107.017 13.5405C106.629 13.1191 106.448 12.5529 106.532 11.9868C106.454 11.4269 106.629 10.8545 107.017 10.4267C107.405 9.99898 107.962 9.75994 108.544 9.76623C109.761 9.76623 110.492 10.5714 110.492 11.905V12.2006H107.405V12.2447C107.38 12.5592 107.49 12.8737 107.71 13.1065C107.93 13.3392 108.24 13.4713 108.57 13.465C108.991 13.5154 109.405 13.3078 109.612 12.9492L110.446 12.9555ZM107.412 11.5905H109.618C109.638 11.3011 109.534 11.018 109.334 10.8105C109.127 10.6029 108.842 10.4833 108.544 10.4896C108.24 10.4833 107.955 10.6029 107.742 10.8105C107.528 11.0117 107.412 11.2948 107.412 11.5905Z" fill="white"/>
<path d="M122.973 37.9787H6.50926C2.94418 37.9787 0.0390625 35.1542 0.0390625 31.6882V6.52631C0.0390625 3.06026 2.94418 0.23584 6.50926 0.23584H122.973C126.538 0.23584 129.443 3.06026 129.443 6.52631V31.6882C129.443 35.1542 126.538 37.9787 122.973 37.9787ZM6.50926 1.49393C3.6559 1.49393 1.3331 3.75221 1.3331 6.52631V31.6882C1.3331 34.4623 3.6559 36.7206 6.50926 36.7206H122.973C125.826 36.7206 128.149 34.4623 128.149 31.6882V6.52631C128.149 3.75221 125.826 1.49393 122.973 1.49393H6.50926Z" fill="white"/>
</svg>
