<svg width="131" height="38" viewBox="0 0 131 38" fill="none" xmlns="http://www.w3.org/2000/svg">
<path d="M46.9111 9.86012C46.9111 10.615 46.717 11.2755 46.2317 11.7473C45.6494 12.3134 44.97 12.5965 44.0965 12.5965C43.2231 12.5965 42.5437 12.3134 41.9614 11.7473C41.379 11.1811 41.0879 10.5206 41.0879 9.67141C41.0879 8.82219 41.379 8.16169 41.9614 7.59555C42.5437 7.02941 43.2231 6.74634 44.0965 6.74634C44.4847 6.74634 44.873 6.84069 45.2612 7.02941C45.6494 7.21812 45.9405 7.40684 46.1346 7.68991L45.6494 8.16169C45.2612 7.68991 44.7759 7.50119 44.0965 7.50119C43.5142 7.50119 42.9319 7.68991 42.5437 8.16169C42.0584 8.53912 41.8643 9.10526 41.8643 9.76576C41.8643 10.4263 42.0584 10.9924 42.5437 11.3698C43.0289 11.7473 43.5142 12.0303 44.0965 12.0303C44.7759 12.0303 45.2612 11.8416 45.7464 11.3698C46.0376 11.0868 46.2317 10.7093 46.2317 10.2375H44.0965V9.57705H46.9111C46.9111 9.57705 46.9111 9.76576 46.9111 9.86012Z" fill="white"/>
<path d="M44.0972 12.754C43.1913 12.754 42.4731 12.4709 41.8455 11.8608C41.2179 11.2506 40.9268 10.5524 40.9268 9.67169C40.9268 8.79102 41.2179 8.09278 41.8455 7.4826C42.4731 6.87243 43.1913 6.58936 44.0972 6.58936C44.5112 6.58936 44.9253 6.69 45.333 6.8913C45.6824 7.06114 46.0382 7.26244 46.2711 7.60212L46.3423 7.70906L45.6371 8.39472L45.5206 8.26262C45.1777 7.84116 44.7506 7.65874 44.0972 7.65874C43.4954 7.65874 42.9908 7.87261 42.6737 8.26262C42.2402 8.6086 42.0267 9.10554 42.0267 9.76604C42.0267 10.4265 42.2337 10.9298 42.6478 11.2443C43.0684 11.5714 43.5342 11.8733 44.0972 11.8733C44.7377 11.8733 45.1841 11.6972 45.6306 11.2569C45.8829 11.0116 46.0253 10.7222 46.0576 10.3951H43.9354V9.42007H47.0734V9.8604C47.0734 10.7159 46.8276 11.389 46.3488 11.8608C45.7212 12.4709 45.003 12.754 44.0972 12.754ZM44.0972 6.90388C43.2819 6.90388 42.6414 7.16179 42.0785 7.70906C41.5155 8.25633 41.2503 8.87909 41.2503 9.67169C41.2503 10.4643 41.5155 11.087 42.0785 11.6343C42.6414 12.1816 43.2819 12.4395 44.0972 12.4395C44.9124 12.4395 45.5529 12.1816 46.1159 11.6343C46.5364 11.2254 46.7499 10.6278 46.7499 9.8604V9.73459H44.2589V10.0806H46.3941V10.2378C46.3941 10.7096 46.2129 11.1437 45.8635 11.4833C45.3524 11.974 44.8218 12.1879 44.0972 12.1879C43.4243 12.1879 42.8872 11.8356 42.4408 11.4959C41.949 11.1122 41.7032 10.5272 41.7032 9.76604C41.7032 9.0049 41.949 8.41988 42.4408 8.03616C42.7966 7.59583 43.3919 7.34421 44.0972 7.34421C44.7765 7.34421 45.2683 7.52664 45.6565 7.92923L45.9218 7.67132C45.7665 7.49518 45.5465 7.34421 45.1906 7.16808C44.8283 6.99195 44.4595 6.90388 44.0972 6.90388Z" fill="white"/>
<path d="M51.3754 7.50083H48.7549V9.29362H51.1813V9.95412H48.7549V11.7469H51.3754V12.5018H47.9785V6.84033H51.3754V7.50083Z" fill="white"/>
<path d="M51.5377 12.6595H47.8174V6.68359H51.5377V7.65862H48.9173V9.13688H51.3436V10.1119H48.9173V11.5902H51.5377V12.6595ZM48.1409 12.345H51.2142V11.9047H48.5938V9.79738H51.0201V9.4514H48.5938V7.34409H51.2142V6.99812H48.1409V12.345Z" fill="white"/>
<path d="M54.5787 12.5018H53.8022V7.50083H52.1523V6.84033H56.2286V7.50083H54.5787V12.5018Z" fill="white"/>
<path d="M54.7401 12.6595H53.6401V7.65862H51.9902V6.68359H56.39V7.65862H54.7401V12.6595ZM53.9636 12.345H54.4166V7.34409H56.0665V6.99812H52.3137V7.34409H53.9636V12.345Z" fill="white"/>
<path d="M59.043 12.5018V6.84033H59.8194V12.5018H59.043Z" fill="white"/>
<path d="M59.9808 12.6595H58.8809V6.68359H59.9808V12.6595ZM59.2044 12.345H59.6573V6.99812H59.2044V12.345Z" fill="white"/>
<path d="M63.1197 12.5018H62.3433V7.50083H60.6934V6.84033H64.6725V7.50083H63.0226V12.5018H63.1197Z" fill="white"/>
<path d="M63.1193 12.6595H62.1812V7.65862H60.5312V6.68359H64.8339V7.65862H63.184V12.5023H63.1193V12.6595ZM62.5047 12.345H62.8605V7.34409H64.5104V6.99812H60.8548V7.34409H62.5047V12.345Z" fill="white"/>
<path d="M72.3382 11.7473C71.7558 12.3134 71.0765 12.5965 70.203 12.5965C69.3295 12.5965 68.6501 12.3134 68.0678 11.7473C67.4855 11.1811 67.1943 10.5206 67.1943 9.67141C67.1943 8.82219 67.4855 8.16169 68.0678 7.59555C68.6501 7.02941 69.3295 6.74634 70.203 6.74634C71.0765 6.74634 71.7558 7.02941 72.3382 7.59555C72.9205 8.16169 73.2116 8.82219 73.2116 9.67141C73.2116 10.5206 72.9205 11.1811 72.3382 11.7473ZM68.6501 11.2755C69.0383 11.6529 69.6207 11.936 70.203 11.936C70.7853 11.936 71.3676 11.7473 71.7558 11.2755C72.144 10.898 72.4352 10.3319 72.4352 9.67141C72.4352 9.01091 72.2411 8.44476 71.7558 8.06734C71.3676 7.68991 70.7853 7.40684 70.203 7.40684C69.6207 7.40684 69.0383 7.59555 68.6501 8.06734C68.2619 8.44476 67.9708 9.01091 67.9708 9.67141C67.9708 10.3319 68.1649 10.898 68.6501 11.2755Z" fill="white"/>
<path d="M70.2036 12.754C69.2978 12.754 68.5796 12.4709 67.952 11.8608C67.3373 11.2569 67.0332 10.5398 67.0332 9.67169C67.0332 8.8036 67.3373 8.08649 67.952 7.4826C68.5796 6.87243 69.2978 6.58936 70.2036 6.58936C71.1094 6.58936 71.8276 6.87243 72.4552 7.4826C73.0699 8.08649 73.374 8.8036 73.374 9.67169C73.374 10.5398 73.0699 11.2569 72.4552 11.8608C71.8276 12.4709 71.1094 12.754 70.2036 12.754ZM70.2036 6.90388C69.3883 6.90388 68.7478 7.16179 68.1849 7.70906C67.622 8.25633 67.3567 8.87909 67.3567 9.67169C67.3567 10.4643 67.622 11.087 68.1849 11.6343C68.7478 12.1816 69.3883 12.4395 70.2036 12.4395C71.0188 12.4395 71.6594 12.1816 72.2223 11.6343C72.7852 11.087 73.0505 10.4643 73.0505 9.67169C73.0505 8.87909 72.7852 8.25633 72.2223 7.70906C71.6594 7.16179 71.0188 6.90388 70.2036 6.90388ZM70.2036 12.0935C69.6277 12.0935 68.9937 11.823 68.5408 11.3953C68.0555 11.0116 67.8096 10.4328 67.8096 9.67169C67.8096 9.03006 68.0749 8.4073 68.5343 7.95439C68.9031 7.50147 69.4983 7.24985 70.2036 7.24985C70.7859 7.24985 71.42 7.52035 71.8729 7.95439C72.3517 8.32553 72.5976 8.91054 72.5976 9.67169C72.5976 10.3133 72.3323 10.9361 71.8729 11.389C71.5041 11.8356 70.9024 12.0935 70.2036 12.0935ZM70.2036 7.56438C69.6019 7.56438 69.0972 7.77825 68.7802 8.16826C68.3661 8.57085 68.1331 9.11183 68.1331 9.67169C68.1331 10.3385 68.3402 10.8354 68.7543 11.1499L68.7672 11.1625C69.1554 11.54 69.7054 11.779 70.2036 11.779C70.8053 11.779 71.31 11.5651 71.6335 11.1751C72.0476 10.7725 72.2805 10.2252 72.2805 9.67169C72.2805 9.0049 72.0735 8.50795 71.6594 8.19343C71.2518 7.79713 70.7018 7.56438 70.2036 7.56438Z" fill="white"/>
<path d="M74.2793 12.5018V6.84033H75.1528L77.9673 11.2751V10.1428V6.84033H78.7437V12.5018H77.9673L74.9587 7.87826V9.01054V12.5018H74.2793Z" fill="white"/>
<path d="M78.9061 12.6595H77.8773L75.121 8.41976V12.6595H74.1182V6.68359H75.244L77.8062 10.7221V6.68359H78.9061V12.6595ZM78.0585 12.345H78.5826V6.99812H78.1297V11.8292L75.0628 6.99812H74.4417V12.345H74.7975V7.3378L78.0585 12.345Z" fill="white"/>
<path d="M67.0012 20.8059C64.6719 20.8059 62.8279 22.5043 62.8279 24.8632C62.8279 27.1278 64.6719 28.9206 67.0012 28.9206C69.3304 28.9206 71.1744 27.2221 71.1744 24.8632C71.1744 22.4099 69.3304 20.8059 67.0012 20.8059ZM67.0012 27.2221C65.7395 27.2221 64.6719 26.1842 64.6719 24.7689C64.6719 23.3535 65.7395 22.3156 67.0012 22.3156C68.2629 22.3156 69.3304 23.2592 69.3304 24.7689C69.3304 26.1842 68.2629 27.2221 67.0012 27.2221ZM57.9752 20.8059C55.646 20.8059 53.802 22.5043 53.802 24.8632C53.802 27.1278 55.646 28.9206 57.9752 28.9206C60.3045 28.9206 62.1485 27.2221 62.1485 24.8632C62.1485 22.4099 60.3045 20.8059 57.9752 20.8059ZM57.9752 27.2221C56.7136 27.2221 55.646 26.1842 55.646 24.7689C55.646 23.3535 56.7136 22.3156 57.9752 22.3156C59.2369 22.3156 60.3045 23.2592 60.3045 24.7689C60.3045 26.1842 59.2369 27.2221 57.9752 27.2221ZM47.2024 22.0325V23.7309H51.3756C51.2786 24.6745 50.8904 25.4294 50.4051 25.9012C49.8228 26.4673 48.8523 27.1278 47.2024 27.1278C44.5819 27.1278 42.6409 25.1463 42.6409 22.5987C42.6409 20.051 44.679 18.0695 47.2024 18.0695C48.5611 18.0695 49.6287 18.6357 50.4051 19.2962L51.6668 18.0695C50.5992 17.126 49.2405 16.3711 47.2994 16.3711C43.8055 16.3711 40.7969 19.2018 40.7969 22.5987C40.7969 25.9955 43.8055 28.8262 47.2994 28.8262C49.2405 28.8262 50.5992 28.2601 51.7639 27.0334C52.9285 25.9012 53.3167 24.2971 53.3167 23.0704C53.3167 22.693 53.3167 22.3156 53.2197 22.0325H47.2024ZM91.2644 23.3535C90.8762 22.4099 89.9057 20.8059 87.7705 20.8059C85.6353 20.8059 83.8884 22.4099 83.8884 24.8632C83.8884 27.1278 85.6353 28.9206 87.9646 28.9206C89.8086 28.9206 90.9733 27.7883 91.3615 27.1278L90.0027 26.1842C89.5175 26.8447 88.9351 27.3165 87.9646 27.3165C86.9941 27.3165 86.4118 26.9391 85.9265 26.0899L91.4585 23.8253L91.2644 23.3535ZM85.6353 24.6745C85.6353 23.1648 86.897 22.3156 87.7705 22.3156C88.4499 22.3156 89.1292 22.693 89.3233 23.1648L85.6353 24.6745ZM81.0739 28.5431H82.9179V16.7485H81.0739V28.5431ZM78.1623 21.6551C77.677 21.1833 76.9006 20.7115 75.93 20.7115C73.8919 20.7115 71.9509 22.5043 71.9509 24.7689C71.9509 27.0334 73.7949 28.7319 75.93 28.7319C76.9006 28.7319 77.677 28.2601 78.0652 27.7883H78.1623V28.3544C78.1623 29.8641 77.2888 30.7134 75.93 30.7134C74.8625 30.7134 74.086 29.9585 73.8919 29.298L72.3391 29.9585C72.8244 30.9964 73.989 32.3174 76.0271 32.3174C78.1623 32.3174 79.9092 31.0908 79.9092 28.1657V20.9946H78.1623V21.6551ZM76.0271 27.2221C74.7654 27.2221 73.6978 26.1842 73.6978 24.7689C73.6978 23.3535 74.7654 22.3156 76.0271 22.3156C77.2888 22.3156 78.2593 23.3535 78.2593 24.7689C78.2593 26.1842 77.2888 27.2221 76.0271 27.2221ZM99.708 16.7485H95.3406V28.5431H97.1846V24.1084H99.708C101.746 24.1084 103.687 22.693 103.687 20.4284C103.687 18.1639 101.746 16.7485 99.708 16.7485ZM99.8051 22.4099H97.1846V18.3526H99.8051C101.164 18.3526 101.94 19.4849 101.94 20.3341C101.843 21.372 101.067 22.4099 99.8051 22.4099ZM110.966 20.7115C109.607 20.7115 108.249 21.2777 107.763 22.5043L109.413 23.1648C109.802 22.5043 110.384 22.3156 111.063 22.3156C112.034 22.3156 112.907 22.8817 113.004 23.8253V23.9197C112.713 23.7309 111.937 23.4479 111.16 23.4479C109.413 23.4479 107.666 24.3914 107.666 26.0899C107.666 27.6939 109.122 28.7319 110.675 28.7319C111.937 28.7319 112.519 28.1657 113.004 27.5996H113.101V28.5431H114.848V24.014C114.654 21.9382 113.004 20.7115 110.966 20.7115ZM110.772 27.2221C110.19 27.2221 109.316 26.9391 109.316 26.1842C109.316 25.2407 110.384 24.9576 111.257 24.9576C112.034 24.9576 112.422 25.1463 112.907 25.335C112.713 26.4673 111.743 27.2221 110.772 27.2221ZM120.963 20.9946L118.925 26.0899H118.827L116.692 20.9946H114.751L117.954 28.1657L116.11 32.1287H117.954L122.904 20.9946H120.963ZM104.658 28.5431H106.502V16.7485H104.658V28.5431Z" fill="white"/>
<path d="M10.0124 6.72516C9.7183 7.03573 9.5459 7.51662 9.5459 8.12775V30.2887C9.5459 30.9098 9.7183 31.3907 10.0124 31.6912L10.0834 31.7614L22.6483 19.3585V19.2082V19.0579L10.0834 6.65503L10.0124 6.72516Z" fill="url(#paint0_linear)"/>
<path d="M26.8358 23.4955L22.6475 19.3579V19.2076V19.0573L26.8358 14.9197L26.927 14.9698L31.8861 17.7549C33.3058 18.5464 33.3058 19.8488 31.8861 20.6503L26.927 23.4354L26.8358 23.4955Z" fill="url(#paint1_linear)"/>
<path d="M26.9272 23.4434L22.6476 19.2056L10.0117 31.6886C10.4782 32.1795 11.2489 32.2396 12.1211 31.7487L26.9272 23.4434Z" fill="url(#paint2_linear)"/>
<path d="M26.9266 14.9783L12.1103 6.66299C11.2382 6.17208 10.4675 6.23219 10.001 6.7231L22.647 19.2061L26.9266 14.9783Z" fill="url(#paint3_linear)"/>
<path opacity="0.2" d="M26.8369 23.3447L12.1119 31.61C11.2905 32.0708 10.5502 32.0408 10.0837 31.62L10.0127 31.6901L10.0837 31.7603C10.5603 32.181 11.2905 32.2111 12.1119 31.7502L26.9282 23.4349L26.8369 23.3447Z" fill="black"/>
<path opacity="0.12" d="M10.0134 31.5505C9.71928 31.24 9.54688 30.7591 9.54688 30.1479V30.2982C9.54688 30.9194 9.71928 31.4003 10.0134 31.7008L10.0844 31.6307L10.0134 31.5505Z" fill="black"/>
<path opacity="0.12" d="M31.8866 20.508L26.8262 23.3432L26.9174 23.4334L31.8765 20.6482C32.5864 20.2475 32.9413 19.7265 32.9413 19.2056C32.8906 19.6764 32.5356 20.1473 31.8866 20.508Z" fill="black"/>
<path opacity="0.25" d="M12.111 6.80563L31.8863 17.9061C32.5252 18.2668 32.8903 18.7276 32.9511 19.2085C32.9511 18.6876 32.5962 18.1566 31.8863 17.7659L12.111 6.66537C10.6912 5.87391 9.53516 6.53513 9.53516 8.13809V8.28837C9.53516 6.67539 10.7014 6.01417 12.111 6.80563Z" fill="white"/>
<path d="M123.842 37.9787H7.3784C3.81332 37.9787 0.908203 35.1542 0.908203 31.6882V6.52631C0.908203 3.06026 3.81332 0.23584 7.3784 0.23584H123.842C127.407 0.23584 130.312 3.06026 130.312 6.52631V31.6882C130.312 35.1542 127.407 37.9787 123.842 37.9787ZM7.3784 1.49393C4.52504 1.49393 2.20224 3.75221 2.20224 6.52631V31.6882C2.20224 34.4623 4.52504 36.7206 7.3784 36.7206H123.842C126.695 36.7206 129.018 34.4623 129.018 31.6882V6.52631C129.018 3.75221 126.695 1.49393 123.842 1.49393H7.3784Z" fill="white"/>
<defs>
<linearGradient id="paint0_linear" x1="21.5324" y1="7.89712" x2="4.72017" y2="24.9152" gradientUnits="userSpaceOnUse">
<stop stop-color="#00A0FF"/>
<stop offset="0.00657445" stop-color="#00A1FF"/>
<stop offset="0.2601" stop-color="#00BEFF"/>
<stop offset="0.5122" stop-color="#00D2FF"/>
<stop offset="0.7604" stop-color="#00DFFF"/>
<stop offset="1" stop-color="#00E3FF"/>
</linearGradient>
<linearGradient id="paint1_linear" x1="33.7361" y1="19.2092" x2="9.19764" y2="19.2092" gradientUnits="userSpaceOnUse">
<stop stop-color="#FFE000"/>
<stop offset="0.4087" stop-color="#FFBD00"/>
<stop offset="0.7754" stop-color="#FFA500"/>
<stop offset="1" stop-color="#FF9C00"/>
</linearGradient>
<linearGradient id="paint2_linear" x1="24.6017" y1="21.506" x2="1.80303" y2="44.5839" gradientUnits="userSpaceOnUse">
<stop stop-color="#FF3A44"/>
<stop offset="1" stop-color="#C31162"/>
</linearGradient>
<linearGradient id="paint3_linear" x1="6.82395" y1="-0.654219" x2="17.0046" y2="9.65098" gradientUnits="userSpaceOnUse">
<stop stop-color="#32A071"/>
<stop offset="0.0685" stop-color="#2DA771"/>
<stop offset="0.4762" stop-color="#15CF74"/>
<stop offset="0.8009" stop-color="#06E775"/>
<stop offset="1" stop-color="#00F076"/>
</linearGradient>
</defs>
</svg>
