<svg id="Layer_1" data-name="Layer 1" xmlns="http://www.w3.org/2000/svg" viewBox="0 0 182 48"><defs><style>.cls-1{fill:#fff;}.cls-2{fill:red;}</style></defs><polygon class="cls-1" points="101.81 10.63 96.93 0.03 80.22 0.03 90.49 21.23 101.81 10.63"/><path class="cls-1" d="M141.46,0H111.6L70.75,48H87L97.7,35.24,103.58,48h28.05l3.76-21.36L138.8,38.4,149,26.16ZM118.57,44.15,108.62,23,125.81,3.09Z"/><polygon class="cls-1" points="166.96 0.03 139.67 41.44 153.36 41.44 163.75 25.24 159.74 47.97 173.54 47.97 182 0.03 166.96 0.03"/><path class="cls-2" d="M21.53,1.79a35.48,35.48,0,0,0-.31,6.72c.32,3.17,2.29,4.79,4.88,5.8a5.27,5.27,0,0,0,2.94.53,3.48,3.48,0,0,0,1.1-.62A7.86,7.86,0,0,1,33.39,13a13.77,13.77,0,0,1,5.23.66A19.44,19.44,0,0,1,43,15.28a4.18,4.18,0,0,1,1.45,1.54c.6,1,.84,2.72,2.2,3a25,25,0,0,0,.13-4.44,26.92,26.92,0,0,1,.57-4.08,57.15,57.15,0,0,1,1.45-5.54c.09-.28.34-1.69.88-1.49.24.08.19.66.18,1,0,1.18-.13,2-.22,3.21A32.25,32.25,0,0,0,49.86,17a13.78,13.78,0,0,1,.48,4.13c0,.38-.23.84-.3,1.27s0,.65-.09.92a6.77,6.77,0,0,1-.79,1.41,8,8,0,0,0-.4.7c-.15.28-.41.41-.39.7,0,.45.9,1.32,1.36,1.45,2,.56,4.14.85,5.31,2a4.43,4.43,0,0,1,1.37,2.81,5.81,5.81,0,0,1-.66,2.86c-.28.63-.55,2.2-1,2.5s-.91.09-1.32.31A9.7,9.7,0,0,0,53,39.75c-.33.47-.83.77-1.19,1.22.12,1-.54,1.31-1.4,1.37-2.57,2.09-7.67.71-9.84-.71-1.08.77-2.28,1.42-2.15,3.39a14.79,14.79,0,0,0,2.76,1.49c1.47.49,3.27.23,4.22,1.1a2.39,2.39,0,0,1,.22.23H53L73.84,23.58,62.43.05H21.67C21.62.65,21.58,1.22,21.53,1.79Z"/><path class="cls-2" d="M2.38,47.61a15.42,15.42,0,0,1,5.09-3.16,18.34,18.34,0,0,0,4.09-2.11,3.28,3.28,0,0,1,1.49-.93,9.06,9.06,0,0,1,3.16.53A5.71,5.71,0,0,0,21.62,40a7.18,7.18,0,0,0,1.71-2.11,11.21,11.21,0,0,0,.26-3.82c0-2.74,1-4.67,1.06-7.2A31.9,31.9,0,0,1,24.52,23a13.31,13.31,0,0,1-4.05-2.59c-1.06-1.18-2.29-3.38-1.93-5.31A9.2,9.2,0,0,1,17,10.14a18.14,18.14,0,0,1,1.1-5.36c.46-1.56.91-3.14,1.39-4.73H10.33L0,47.84H2.18C2.24,47.77,2.31,47.68,2.38,47.61Z"/></svg>